<svg xmlns="http://www.w3.org/2000/svg" xmlns:xlink="http://www.w3.org/1999/xlink" width="64" zoomAndPan="magnify" viewBox="0 0 48 48" height="64" preserveAspectRatio="xMidYMid meet" version="1.0"><defs><clipPath id="8dc5857863"><path d="M 0.488281 0 L 47.507812 0 L 47.507812 47.019531 L 0.488281 47.019531 Z M 0.488281 0 " clip-rule="nonzero"/></clipPath><clipPath id="7abd9a76b4"><path d="M 0.488281 0 L 47.507812 0 L 47.507812 47 L 0.488281 47 Z M 0.488281 0 " clip-rule="nonzero"/></clipPath><clipPath id="aafa919bcb"><path d="M 13 8 L 35 8 L 35 47.019531 L 13 47.019531 Z M 13 8 " clip-rule="nonzero"/></clipPath></defs><g clip-path="url(#8dc5857863)"><path fill="#ffffff" d="M 0.488281 0 L 47.511719 0 L 47.511719 47.019531 L 0.488281 47.019531 Z M 0.488281 0 " fill-opacity="1" fill-rule="nonzero"/><path fill="#ffffff" d="M 0.488281 0 L 47.511719 0 L 47.511719 47.019531 L 0.488281 47.019531 Z M 0.488281 0 " fill-opacity="1" fill-rule="nonzero"/></g><g clip-path="url(#7abd9a76b4)"><path fill="#0866ff" d="M 47.515625 23.515625 C 47.515625 10.527344 36.988281 0 24.003906 0 C 11.019531 0 0.488281 10.527344 0.488281 23.515625 C 0.488281 34.542969 8.082031 43.796875 18.324219 46.335938 L 18.324219 30.699219 L 13.472656 30.699219 L 13.472656 23.515625 L 18.324219 23.515625 L 18.324219 20.417969 C 18.324219 12.414062 21.945312 8.707031 29.800781 8.707031 C 31.292969 8.707031 33.863281 8.996094 34.914062 9.289062 L 34.914062 15.804688 C 34.359375 15.742188 33.394531 15.714844 32.195312 15.714844 C 28.339844 15.714844 26.851562 17.175781 26.851562 20.972656 L 26.851562 23.511719 L 34.53125 23.511719 L 33.210938 30.699219 L 26.851562 30.699219 L 26.851562 46.855469 C 38.496094 45.449219 47.515625 35.535156 47.515625 23.511719 Z M 47.515625 23.515625 " fill-opacity="1" fill-rule="nonzero"/></g><g clip-path="url(#aafa919bcb)"><path fill="#ffffff" d="M 33.214844 30.699219 L 34.53125 23.511719 L 26.851562 23.511719 L 26.851562 20.972656 C 26.851562 17.175781 28.34375 15.714844 32.199219 15.714844 C 33.394531 15.714844 34.359375 15.742188 34.914062 15.804688 L 34.914062 9.289062 C 33.863281 9 31.292969 8.707031 29.804688 8.707031 C 21.945312 8.707031 18.324219 12.414062 18.324219 20.417969 L 18.324219 23.515625 L 13.476562 23.515625 L 13.476562 30.699219 L 18.324219 30.699219 L 18.324219 46.335938 C 20.144531 46.789062 22.046875 47.027344 24.007812 47.027344 C 24.972656 47.027344 25.921875 46.96875 26.855469 46.855469 L 26.855469 30.699219 Z M 33.214844 30.699219 " fill-opacity="1" fill-rule="nonzero"/></g></svg>