<svg xmlns="http://www.w3.org/2000/svg" xmlns:xlink="http://www.w3.org/1999/xlink" width="64" zoomAndPan="magnify" viewBox="0 0 48 48" height="64" preserveAspectRatio="xMidYMid meet" version="1.0"><defs><clipPath id="4308af25ef"><path d="M 0.488281 0 L 47.507812 0 L 47.507812 47.019531 L 0.488281 47.019531 Z M 0.488281 0 " clip-rule="nonzero"/></clipPath></defs><g clip-path="url(#4308af25ef)"><path fill="#ffffff" d="M 0.488281 0 L 47.511719 0 L 47.511719 47.019531 L 0.488281 47.019531 Z M 0.488281 0 " fill-opacity="1" fill-rule="nonzero"/><path fill="#ffffff" d="M 0.488281 0 L 47.511719 0 L 47.511719 47.019531 L 0.488281 47.019531 Z M 0.488281 0 " fill-opacity="1" fill-rule="nonzero"/><path fill="#000000" d="M 28.46875 20.175781 L 45.949219 -0.0507812 L 41.804688 -0.0507812 L 26.628906 17.511719 L 14.507812 -0.0507812 L 0.527344 -0.0507812 L 18.859375 26.507812 L 0.527344 47.714844 L 4.671875 47.714844 L 20.699219 29.167969 L 33.5 47.714844 L 47.480469 47.714844 Z M 22.796875 26.738281 L 20.9375 24.097656 L 6.164062 3.054688 L 12.527344 3.054688 L 24.453125 20.035156 L 26.308594 22.675781 L 41.8125 44.75 L 35.449219 44.75 Z M 22.796875 26.738281 " fill-opacity="1" fill-rule="nonzero"/></g></svg>